<svg width="28" height="28" viewBox="0 0 28 28" fill="none" xmlns="http://www.w3.org/2000/svg">
<path d="M0 12.8C0 8.31958 0 6.07937 0.871948 4.36808C1.63893 2.86278 2.86278 1.63893 4.36808 0.871948C6.07937 0 8.31958 0 12.8 0H15.2C19.6804 0 21.9206 0 23.6319 0.871948C25.1372 1.63893 26.3611 2.86278 27.1281 4.36808C28 6.07937 28 8.31958 28 12.8V15.2C28 19.6804 28 21.9206 27.1281 23.6319C26.3611 25.1372 25.1372 26.3611 23.6319 27.1281C21.9206 28 19.6804 28 15.2 28H12.8C8.31958 28 6.07937 28 4.36808 27.1281C2.86278 26.3611 1.63893 25.1372 0.871948 23.6319C0 21.9206 0 19.6804 0 15.2V12.8Z" fill="black" fill-opacity="0.04"/>
<path d="M20 15.5V19C20 19.2652 19.8946 19.5196 19.7071 19.7071C19.5196 19.8946 19.2652 20 19 20H9C8.73478 20 8.48043 19.8946 8.29289 19.7071C8.10536 19.5196 8 19.2652 8 19V15.5C8 15.3674 8.05268 15.2402 8.14645 15.1464C8.24021 15.0527 8.36739 15 8.5 15C8.63261 15 8.75979 15.0527 8.85355 15.1464C8.94732 15.2402 9 15.3674 9 15.5V19H19V15.5C19 15.3674 19.0527 15.2402 19.1464 15.1464C19.2402 15.0527 19.3674 15 19.5 15C19.6326 15 19.7598 15.0527 19.8536 15.1464C19.9473 15.2402 20 15.3674 20 15.5ZM13.6462 15.8538C13.6927 15.9002 13.7478 15.9371 13.8085 15.9623C13.8692 15.9874 13.9343 16.0004 14 16.0004C14.0657 16.0004 14.1308 15.9874 14.1915 15.9623C14.2522 15.9371 14.3073 15.9002 14.3538 15.8538L16.8538 13.3538C16.9002 13.3073 16.9371 13.2521 16.9622 13.1914C16.9873 13.1308 17.0003 13.0657 17.0003 13C17.0003 12.9343 16.9873 12.8692 16.9622 12.8086C16.9371 12.7479 16.9002 12.6927 16.8538 12.6462C16.8073 12.5998 16.7521 12.5629 16.6914 12.5378C16.6308 12.5127 16.5657 12.4997 16.5 12.4997C16.4343 12.4997 16.3692 12.5127 16.3086 12.5378C16.2479 12.5629 16.1927 12.5998 16.1462 12.6462L14.5 14.2931V8.5C14.5 8.36739 14.4473 8.24021 14.3536 8.14645C14.2598 8.05268 14.1326 8 14 8C13.8674 8 13.7402 8.05268 13.6464 8.14645C13.5527 8.24021 13.5 8.36739 13.5 8.5V14.2931L11.8538 12.6462C11.7599 12.5524 11.6327 12.4997 11.5 12.4997C11.3673 12.4997 11.2401 12.5524 11.1462 12.6462C11.0524 12.7401 10.9997 12.8673 10.9997 13C10.9997 13.1327 11.0524 13.2599 11.1462 13.3538L13.6462 15.8538Z" fill="black"/>
</svg>
