<svg width="24" height="24" viewBox="0 0 24 24" fill="none" xmlns="http://www.w3.org/2000/svg">
<path d="M0 12C0 8.27247 0 6.4087 0.608964 4.93853C1.42092 2.97831 2.97831 1.42092 4.93853 0.608964C6.4087 0 8.27247 0 12 0C15.7275 0 17.5913 0 19.0615 0.608964C21.0217 1.42092 22.5791 2.97831 23.391 4.93853C24 6.4087 24 8.27247 24 12C24 15.7275 24 17.5913 23.391 19.0615C22.5791 21.0217 21.0217 22.5791 19.0615 23.391C17.5913 24 15.7275 24 12 24C8.27247 24 6.4087 24 4.93853 23.391C2.97831 22.5791 1.42092 21.0217 0.608964 19.0615C0 17.5913 0 15.7275 0 12Z" fill="#E6F1FD"/>
<path d="M11.5 13H10.5C10.3674 13 10.2402 13.0527 10.1464 13.1464C10.0527 13.2402 10 13.3674 10 13.5V17C10 17.1326 10.0527 17.2598 10.1464 17.3536C10.2402 17.4473 10.3674 17.5 10.5 17.5C10.6326 17.5 10.7598 17.4473 10.8536 17.3536C10.9473 17.2598 11 17.1326 11 17V16.5H11.5C11.9641 16.5 12.4092 16.3156 12.7374 15.9874C13.0656 15.6592 13.25 15.2141 13.25 14.75C13.25 14.2859 13.0656 13.8408 12.7374 13.5126C12.4092 13.1844 11.9641 13 11.5 13ZM11.5 15.5H11V14H11.5C11.6989 14 11.8897 14.079 12.0303 14.2197C12.171 14.3603 12.25 14.5511 12.25 14.75C12.25 14.9489 12.171 15.1397 12.0303 15.2803C11.8897 15.421 11.6989 15.5 11.5 15.5ZM17.5 15.5V16.5544C17.5 16.6832 17.4503 16.807 17.3612 16.9C17.1872 17.0874 16.9766 17.2373 16.7425 17.3405C16.5085 17.4436 16.2558 17.4979 16 17.5C14.8969 17.5 14 16.4906 14 15.25C14 14.0094 14.8969 13 16 13C16.3676 13.0012 16.7264 13.1126 17.03 13.32C17.1399 13.3946 17.2157 13.5098 17.2406 13.6402C17.2656 13.7707 17.2377 13.9057 17.1631 14.0156C17.0885 14.1255 16.9733 14.2013 16.8429 14.2263C16.7124 14.2512 16.5774 14.2233 16.4675 14.1488C16.3303 14.0529 16.1673 14.0011 16 14C15.4487 14 15 14.5625 15 15.25C15 15.9375 15.4487 16.5 16 16.5C16.1804 16.4979 16.3555 16.4386 16.5 16.3306V16C16.3674 16 16.2402 15.9473 16.1464 15.8536C16.0527 15.7598 16 15.6326 16 15.5C16 15.3674 16.0527 15.2402 16.1464 15.1464C16.2402 15.0527 16.3674 15 16.5 15H17C17.1326 15 17.2598 15.0527 17.3536 15.1464C17.4473 15.2402 17.5 15.3674 17.5 15.5ZM9 13.5V15.875C9 16.306 8.82879 16.7193 8.52405 17.024C8.2193 17.3288 7.80598 17.5 7.375 17.5C6.94402 17.5 6.5307 17.3288 6.22595 17.024C5.9212 16.7193 5.75 16.306 5.75 15.875C5.75 15.7424 5.80268 15.6152 5.89645 15.5214C5.99021 15.4277 6.11739 15.375 6.25 15.375C6.38261 15.375 6.50979 15.4277 6.60355 15.5214C6.69732 15.6152 6.75 15.7424 6.75 15.875C6.75 16.0408 6.81585 16.1997 6.93306 16.3169C7.05027 16.4342 7.20924 16.5 7.375 16.5C7.54076 16.5 7.69973 16.4342 7.81694 16.3169C7.93415 16.1997 8 16.0408 8 15.875V13.5C8 13.3674 8.05268 13.2402 8.14645 13.1464C8.24021 13.0527 8.36739 13 8.5 13C8.63261 13 8.75979 13.0527 8.85355 13.1464C8.94732 13.2402 9 13.3674 9 13.5ZM17.3538 9.14625L13.8538 5.64625C13.8073 5.59983 13.7521 5.56303 13.6914 5.53793C13.6307 5.51284 13.5657 5.49995 13.5 5.5H7.5C7.23478 5.5 6.98043 5.60536 6.79289 5.79289C6.60536 5.98043 6.5 6.23478 6.5 6.5V11C6.5 11.1326 6.55268 11.2598 6.64645 11.3536C6.74021 11.4473 6.86739 11.5 7 11.5C7.13261 11.5 7.25979 11.4473 7.35355 11.3536C7.44732 11.2598 7.5 11.1326 7.5 11V6.5H13V9.5C13 9.63261 13.0527 9.75979 13.1464 9.85355C13.2402 9.94732 13.3674 10 13.5 10H16.5V11C16.5 11.1326 16.5527 11.2598 16.6464 11.3536C16.7402 11.4473 16.8674 11.5 17 11.5C17.1326 11.5 17.2598 11.4473 17.3536 11.3536C17.4473 11.2598 17.5 11.1326 17.5 11V9.5C17.5001 9.43432 17.4872 9.36927 17.4621 9.30858C17.437 9.24788 17.4002 9.19272 17.3538 9.14625ZM14 9V7.20688L15.7931 9H14Z" fill="black"/>
</svg>
