<svg width="28" height="28" viewBox="0 0 28 28" fill="none" xmlns="http://www.w3.org/2000/svg">
<path d="M11.5 9V19H8.5C8.36739 19 8.24021 18.9473 8.14645 18.8536C8.05268 18.7598 8 18.6326 8 18.5V9.5C8 9.36739 8.05268 9.24021 8.14645 9.14645C8.24021 9.05268 8.36739 9 8.5 9H11.5Z" fill="black" fill-opacity="0.04"/>
<path d="M19.5 8.5H8.5C8.23478 8.5 7.98043 8.60536 7.79289 8.79289C7.60536 8.98043 7.5 9.23478 7.5 9.5V18.5C7.5 18.7652 7.60536 19.0196 7.79289 19.2071C7.98043 19.3946 8.23478 19.5 8.5 19.5H19.5C19.7652 19.5 20.0196 19.3946 20.2071 19.2071C20.3946 19.0196 20.5 18.7652 20.5 18.5V9.5C20.5 9.23478 20.3946 8.98043 20.2071 8.79289C20.0196 8.60536 19.7652 8.5 19.5 8.5ZM8.5 15.5H9.5C9.63261 15.5 9.75979 15.4473 9.85355 15.3536C9.94732 15.2598 10 15.1326 10 15C10 14.8674 9.94732 14.7402 9.85355 14.6464C9.75979 14.5527 9.63261 14.5 9.5 14.5H8.5V13.5H9.5C9.63261 13.5 9.75979 13.4473 9.85355 13.3536C9.94732 13.2598 10 13.1326 10 13C10 12.8674 9.94732 12.7402 9.85355 12.6464C9.75979 12.5527 9.63261 12.5 9.5 12.5H8.5V11.5H9.5C9.63261 11.5 9.75979 11.4473 9.85355 11.3536C9.94732 11.2598 10 11.1326 10 11C10 10.8674 9.94732 10.7402 9.85355 10.6464C9.75979 10.5527 9.63261 10.5 9.5 10.5H8.5V9.5H11V18.5H8.5V15.5ZM19.5 18.5H12V9.5H19.5V18.5Z" fill="black"/>
</svg>
