<svg width="24" height="24" viewBox="0 0 24 24" fill="none" xmlns="http://www.w3.org/2000/svg">
<path d="M0 12C0 8.27247 0 6.4087 0.608964 4.93853C1.42092 2.97831 2.97831 1.42092 4.93853 0.608964C6.4087 0 8.27247 0 12 0C15.7275 0 17.5913 0 19.0615 0.608964C21.0217 1.42092 22.5791 2.97831 23.391 4.93853C24 6.4087 24 8.27247 24 12C24 15.7275 24 17.5913 23.391 19.0615C22.5791 21.0217 21.0217 22.5791 19.0615 23.391C17.5913 24 15.7275 24 12 24C8.27247 24 6.4087 24 4.93853 23.391C2.97831 22.5791 1.42092 21.0217 0.608964 19.0615C0 17.5913 0 15.7275 0 12Z" fill="#E6F1FD"/>
<path d="M13.75 17C13.75 17.1326 13.6974 17.2598 13.6036 17.3536C13.5098 17.4473 13.3826 17.5 13.25 17.5H11.5C11.3674 17.5 11.2402 17.4473 11.1465 17.3536C11.0527 17.2598 11 17.1326 11 17V13.5C11 13.3674 11.0527 13.2402 11.1465 13.1464C11.2402 13.0527 11.3674 13 11.5 13C11.6326 13 11.7598 13.0527 11.8536 13.1464C11.9474 13.2402 12 13.3674 12 13.5V16.5H13.25C13.3826 16.5 13.5098 16.5527 13.6036 16.6464C13.6974 16.7402 13.75 16.8674 13.75 17ZM9.79066 13.0931C9.73722 13.055 9.6768 13.0277 9.61283 13.0129C9.54886 12.9981 9.4826 12.996 9.41783 13.0068C9.35306 13.0176 9.29105 13.041 9.23534 13.0758C9.17964 13.1106 9.13132 13.1559 9.09316 13.2094L8.25003 14.39L7.40691 13.2094C7.3701 13.1527 7.3222 13.1042 7.2661 13.0665C7.21 13.0289 7.14687 13.0031 7.0805 12.9905C7.01414 12.978 6.94592 12.979 6.87996 12.9936C6.81401 13.0081 6.75169 13.0359 6.69676 13.0752C6.64183 13.1145 6.59543 13.1645 6.56036 13.2222C6.52529 13.28 6.50228 13.3442 6.49271 13.411C6.48315 13.4779 6.48722 13.546 6.5047 13.6112C6.52218 13.6765 6.5527 13.7375 6.59441 13.7906L7.63566 15.25L6.59316 16.7094C6.523 16.8173 6.49718 16.9482 6.52108 17.0747C6.54499 17.2012 6.61677 17.3136 6.72148 17.3885C6.82618 17.4634 6.95575 17.495 7.0832 17.4768C7.21065 17.4586 7.32615 17.3919 7.40566 17.2906L8.25003 16.11L9.09316 17.2906C9.17266 17.3919 9.28816 17.4586 9.41561 17.4768C9.54306 17.495 9.67263 17.4634 9.77734 17.3885C9.88205 17.3136 9.95382 17.2012 9.97773 17.0747C10.0016 16.9482 9.97581 16.8173 9.90566 16.7094L8.86441 15.25L9.90691 13.7906C9.94507 13.7372 9.97234 13.6768 9.98715 13.6128C10.002 13.5488 10.004 13.4826 9.99324 13.4178C9.98245 13.353 9.959 13.291 9.92424 13.2353C9.88948 13.1796 9.84409 13.1313 9.79066 13.0931ZM15.9744 14.7069C15.7244 14.6344 15.4657 14.56 15.3213 14.4669C15.2432 14.4156 15.2444 14.4044 15.2513 14.3481C15.2522 14.3027 15.2641 14.2581 15.2858 14.2182C15.3076 14.1783 15.3386 14.1442 15.3763 14.1187C15.6638 13.9237 16.335 14.0112 16.615 14.0837C16.7433 14.1175 16.8798 14.0989 16.9943 14.032C17.1089 13.9651 17.1922 13.8555 17.226 13.7272C17.2597 13.5989 17.2411 13.4624 17.1742 13.3479C17.1073 13.2333 16.9977 13.15 16.8694 13.1163C16.7375 13.0819 15.5569 12.79 14.8175 13.2887C14.6616 13.3941 14.5307 13.5324 14.4341 13.6938C14.3374 13.8553 14.2774 14.0359 14.2582 14.2231C14.1332 15.2156 15.1113 15.4987 15.6957 15.6675C16.4494 15.8856 16.5157 15.975 16.4944 16.1419C16.475 16.2925 16.4157 16.35 16.36 16.3875C16.0725 16.5787 15.4125 16.4844 15.1388 16.4094C15.0107 16.3738 14.8738 16.3906 14.7581 16.456C14.7008 16.4884 14.6505 16.5317 14.61 16.5836C14.5694 16.6354 14.5395 16.6947 14.5219 16.7581C14.5043 16.8215 14.4994 16.8878 14.5074 16.9531C14.5154 17.0184 14.5361 17.0815 14.5685 17.1388C14.6339 17.2545 14.7426 17.3394 14.8707 17.375C15.1806 17.4566 15.4996 17.4986 15.82 17.5C16.1838 17.5 16.5888 17.4375 16.9132 17.2212C17.0732 17.1148 17.2076 16.9743 17.3068 16.8097C17.406 16.6451 17.4675 16.4606 17.4869 16.2694C17.625 15.1875 16.5925 14.8856 15.9744 14.7069ZM6.50003 11V6.5C6.50003 6.23478 6.60539 5.98043 6.79292 5.79289C6.98046 5.60536 7.23481 5.5 7.50003 5.5H13.5C13.5657 5.49995 13.6308 5.51284 13.6915 5.53793C13.7522 5.56303 13.8073 5.59983 13.8538 5.64625L17.3538 9.14625C17.4002 9.19272 17.437 9.24788 17.4621 9.30858C17.4872 9.36927 17.5001 9.43432 17.5 9.5V11C17.5 11.1326 17.4474 11.2598 17.3536 11.3536C17.2598 11.4473 17.1326 11.5 17 11.5C16.8674 11.5 16.7402 11.4473 16.6465 11.3536C16.5527 11.2598 16.5 11.1326 16.5 11V10H13.5C13.3674 10 13.2402 9.94732 13.1465 9.85355C13.0527 9.75979 13 9.63261 13 9.5V6.5H7.50003V11C7.50003 11.1326 7.44735 11.2598 7.35358 11.3536C7.25982 11.4473 7.13264 11.5 7.00003 11.5C6.86742 11.5 6.74025 11.4473 6.64648 11.3536C6.55271 11.2598 6.50003 11.1326 6.50003 11ZM14 9H15.7925L14 7.20688V9Z" fill="black"/>
</svg>
